<?xml version="1.0" standalone="no"?>
<svg xmlns="http://www.w3.org/2000/svg" xmlns:xlink="http://www.w3.org/1999/xlink" width="579pt" height="195pt" viewBox="0.00 0.00 579.43 195">
<g id="graph0" class="graph" transform="translate(4,191) scale(1)" data-name="FiniteAutomata">

<g id="clust1" class="cluster" data-name="cluster_dfa">

<polygon fill="none" stroke="white" points="8,-8 8,-179 563.43,-179 563.43,-8 8,-8"/>
<text text-anchor="middle" x="285.71" y="-162.4" font-family="Times,serif" font-size="14.00" fill="white">Is the language of this DFA finite or infinite</text>
</g>
<!-- start -->
<g id="node1" class="node" pointer-events="visible" data-name="start">

<ellipse fill="linen" stroke="cadetblue" cx="17.8" cy="-65" rx="1.8" ry="1.8"/>
</g>
<!-- p0 -->

<!-- start&#45;&gt;p0 -->
<g id="edge1" class="edge" data-name="start-&gt;q0" data-comment="start-&gt;p0">

<path fill="none" stroke="azure" d="M19.81,-65C23.06,-65 33.72,-65 44.95,-65"/>
<polygon fill="azure" stroke="azure" points="44.62,-68.5 54.62,-65 44.62,-61.5 44.62,-68.5"/>
</g>
<!-- pi -->
<g id="node2" class="node" pointer-events="visible" data-name="q0" data-comment="pi">

<ellipse fill="linen" stroke="cadetblue" cx="77.84" cy="-65" rx="21.47" ry="21.47"/>
<text text-anchor="start" x="70.44" y="-61.8" font-family="monospace" font-weight="bold" font-size="14.00">q</text>
<text text-anchor="start" x="78.23" y="-61.8" font-family="monospace" font-weight="bold" baseline-shift="sub" font-size="14.00">0</text>
</g><g id="node3" class="node" pointer-events="visible" data-name="q1" data-comment="pi">

<ellipse fill="linen" stroke="cadetblue" cx="173.81" cy="-65" rx="21.47" ry="21.47"/>
<text text-anchor="start" x="166.41" y="-61.8" font-family="monospace" font-size="14.00" font-weight="bold">q</text>
<text text-anchor="start" x="174.2" y="-61.8" font-family="monospace" font-weight="bold" baseline-shift="sub" font-size="14.00">1</text>
</g>
<!-- p0&#45;&gt;pi -->
<g id="edge2" class="edge" data-name="q0-&gt;q1" data-comment="p0-&gt;pi">

<path fill="none" stroke="azure" d="M99.69,-65C111.74,-65 127.14,-65 140.7,-65"/>
<polygon fill="azure" stroke="azure" points="140.5,-68.5 150.5,-65 140.5,-61.5 140.5,-68.5"/>
<text text-anchor="middle" x="125.82" y="-69.2" font-family="Times,serif" font-size="14.00" fill="lightblue">0,1</text>
</g>
<!-- q -->
<!-- q2 -->
<g id="node4" class="node" pointer-events="visible" data-name="q2">

<ellipse fill="linen" stroke="cadetblue" cx="259.28" cy="-37" rx="21.47" ry="21.47"/>
<text text-anchor="start" x="251.89" y="-33.8" font-family="monospace" font-weight="bold" font-size="14.00">q</text>
<text text-anchor="start" x="259.67" y="-33.8" font-family="monospace" font-weight="bold" baseline-shift="sub" font-size="14.00">2</text>
</g>
<g id="edge3" class="edge" data-name="q1-&gt;q2" data-comment="q2">

<path fill="none" stroke="azure" d="M194.59,-58.36C204.39,-55.08 216.46,-51.03 227.44,-47.35"/>
<polygon fill="azure" stroke="azure" points="228.55,-50.66 236.91,-44.17 226.32,-44.03 228.55,-50.66"/>
<text text-anchor="middle" x="216.54" y="-55.2" font-family="Times,serif" font-size="14.00" fill="lightblue">0</text>
</g>
<!-- q -->
<!-- q3 -->
<g id="node5" class="node" pointer-events="visible" data-name="q3">

<ellipse fill="linen" stroke="cadetblue" cx="344.75" cy="-90" rx="21.47" ry="21.47"/>
<text text-anchor="start" x="337.36" y="-86.8" font-family="monospace" font-weight="bold" font-size="14.00">q</text>
<text text-anchor="start" x="345.14" y="-86.8" font-family="monospace" font-weight="bold" baseline-shift="sub" font-size="14.00">3</text>
</g>
<g id="edge5" class="edge" data-name="q2-&gt;q3" data-comment="q3">

<path fill="none" stroke="azure" d="M277.98,-48.24C289.16,-55.34 303.82,-64.65 316.47,-72.68"/>
<polygon fill="azure" stroke="azure" points="314.48,-75.56 324.8,-77.96 318.23,-69.65 314.48,-75.56"/>
<text text-anchor="middle" x="302.01" y="-69.2" font-family="Times,serif" font-size="14.00" fill="lightblue">1</text>
</g><g id="edge4" class="edge" data-name="q1-&gt;q3" data-comment="q3">

<path fill="none" stroke="azure" d="M195.43,-68.85C201.13,-69.89 207.32,-71.01 213.04,-72 250.97,-78.58 260.32,-81.19 298.51,-86 302.75,-86.53 307.22,-87.02 311.64,-87.46"/>
<polygon fill="azure" stroke="azure" points="311.21,-90.93 321.49,-88.35 311.85,-83.96 311.21,-90.93"/>
<text text-anchor="middle" x="259.28" y="-87.2" font-family="Times,serif" font-size="14.00" fill="lightblue">1</text>
</g>
<!-- q -->
<g id="node6" class="node" pointer-events="visible" data-name="q4" data-comment="q">

<ellipse fill="linen" stroke="cadetblue" cx="434.22" cy="-57" rx="21.44" ry="21.44"/>
<text text-anchor="start" x="426.83" y="-53.8" font-family="monospace" font-weight="bold" font-size="14.00">q</text><ellipse fill="none" stroke="cadetblue" cx="434.22" cy="-57" rx="25.47" ry="25.47"/>
<text text-anchor="start" x="434.61" y="-53.8" font-family="monospace" font-weight="bold" baseline-shift="sub" font-size="14.00">4</text>

</g>
<!-- q -->
<g id="node7" class="node" pointer-events="visible" data-name="q5" data-comment="q">

<ellipse fill="linen" stroke="cadetblue" cx="534.19" cy="-57" rx="21.47" ry="21.47"/>
<text text-anchor="start" x="526.8" y="-53.8" font-family="monospace" font-weight="bold" font-size="14.00">q</text>
<text text-anchor="start" x="534.59" y="-53.8" font-family="monospace" font-weight="bold" baseline-shift="sub" font-size="14.00">5</text>
</g><g id="edge7" class="edge" data-name="q3-&gt;q4" data-comment="q">

<path fill="none" stroke="azure" d="M365.16,-82.68C375.16,-78.91 387.63,-74.2 399.17,-69.85"/>
<polygon fill="azure" stroke="azure" points="400.28,-73.17 408.4,-66.36 397.81,-66.62 400.28,-73.17"/>
<text text-anchor="middle" x="387.49" y="-79.2" font-family="Times,serif" font-size="14.00" fill="lightblue">0</text>
</g>
<!-- q6 -->
<!-- q6 -->
<!-- q6 -->

<!-- q6 -->
<g id="edge6" class="edge" data-name="q2-&gt;q4" data-comment="q6">

<path fill="none" stroke="azure" d="M281.02,-37.34C302.4,-37.89 336.64,-39.35 365.99,-43.2 376.46,-44.57 387.74,-46.65 398.01,-48.78"/>
<polygon fill="azure" stroke="azure" points="397.1,-52.16 407.61,-50.85 398.57,-45.32 397.1,-52.16"/>
<text text-anchor="middle" x="344.75" y="-47.2" font-family="Times,serif" font-size="14.00" fill="lightblue">0</text>
</g>
<!-- q4&#45;&gt;q5 -->
<g id="edge9" class="edge" data-name="q4-&gt;q5">

<path fill="none" stroke="azure" d="M460.2,-57C472.52,-57 487.55,-57 500.75,-57"/>
<polygon fill="azure" stroke="azure" points="500.72,-60.5 510.72,-57 500.72,-53.5 500.72,-60.5"/>
<text text-anchor="middle" x="486.21" y="-61.2" font-family="Times,serif" font-size="14.00" fill="lightblue">0,1</text>
</g><g id="edge8" class="edge" data-name="q3-&gt;q3" data-comment="q4-&gt;q5">

<path fill="none" stroke="azure" d="M336.97,-110.19C335.9,-120.26 338.49,-129.24 344.75,-129.24 348.47,-129.24 350.89,-126.07 352.02,-121.39"/>
<polygon fill="azure" stroke="azure" points="355.5,-121.85 352.46,-111.7 348.51,-121.53 355.5,-121.85"/>
<text text-anchor="middle" x="344.75" y="-133.44" font-family="Times,serif" font-size="14.00" fill="lightblue">1</text>
</g>
<!-- q5&#45;&gt;q5 -->
<g id="edge10" class="edge" data-name="q5-&gt;q5">

<path fill="none" stroke="azure" d="M525.51,-76.78C524.18,-87.01 527.07,-96.24 534.19,-96.24 538.42,-96.24 541.16,-92.98 542.41,-88.2"/>
<polygon fill="azure" stroke="azure" points="545.9,-88.43 542.81,-78.3 538.91,-88.15 545.9,-88.43"/>
<text text-anchor="middle" x="534.19" y="-100.44" font-family="Times,serif" font-size="14.00" fill="lightblue">0,1</text>
</g>


</g>
</svg>