<?xml version="1.0" standalone="no"?>
<svg xmlns="http://www.w3.org/2000/svg" xmlns:xlink="http://www.w3.org/1999/xlink" width="302pt" height="286pt" viewBox="0.00 0.00 302.01 286">
<g id="graph0" class="graph" transform="translate(4,282) scale(1)" data-name="FiniteAutomata">

<g id="clust1" class="cluster" data-name="cluster_nfa">

<polygon fill="none" stroke="white" points="8,-8 8,-126 286.01,-126 286.01,-8 8,-8"/>
<text text-anchor="middle" x="147.01" y="-109.4" font-family="Times,serif" font-size="14.00" fill="white">NFA</text>
</g>
<g id="clust2" class="cluster" data-name="cluster_dfa">

<polygon fill="none" stroke="white" points="8,-134 8,-270 286.01,-270 286.01,-134 8,-134"/>
<text text-anchor="middle" x="147.01" y="-253.4" font-family="Times,serif" font-size="14.00" fill="white">DFA</text>
</g>
<!-- startn -->
<g id="node1" class="node" pointer-events="visible" data-name="startn">

<ellipse fill="linen" stroke="cadetblue" cx="17.8" cy="-37" rx="1.8" ry="1.8"/>
</g>
<!-- q0n -->
<g id="node2" class="node" pointer-events="visible" data-name="q0n">

<ellipse fill="linen" stroke="cadetblue" cx="77.84" cy="-37" rx="21.47" ry="21.47"/>
<text text-anchor="start" x="70.44" y="-33.8" font-family="monospace" font-weight="bold" font-size="14.00">q</text>
<text text-anchor="start" x="78.23" y="-33.8" font-family="monospace" font-weight="bold" baseline-shift="sub" font-size="14.00">0</text>
</g>
<!-- startn&#45;&gt;q0n -->
<g id="edge1" class="edge" data-name="startn-&gt;q0n">

<path fill="none" stroke="azure" d="M19.81,-37C23.06,-37 33.72,-37 44.95,-37"/>
<polygon fill="azure" stroke="azure" points="44.62,-40.5 54.62,-37 44.62,-33.5 44.62,-40.5"/>
</g>
<!-- q0n&#45;&gt;q0n -->
<g id="edge2" class="edge" data-name="q0n-&gt;q0n">

<path fill="none" stroke="azure" d="M70.57,-57.59C69.67,-67.49 72.09,-76.24 77.84,-76.24 81.16,-76.24 83.37,-73.31 84.47,-68.93"/>
<polygon fill="azure" stroke="azure" points="87.95,-69.28 85.02,-59.1 80.96,-68.89 87.95,-69.28"/>
<text text-anchor="middle" x="77.84" y="-80.44" font-family="Times,serif" font-size="14.00" fill="lightblue">0 , 1</text>
</g>
<!-- q1n -->
<g id="node3" class="node" pointer-events="visible" data-name="q1n">

<ellipse fill="linen" stroke="cadetblue" cx="163.31" cy="-39" rx="21.47" ry="21.47"/>
<text text-anchor="start" x="155.91" y="-35.8" font-family="monospace" font-weight="bold" font-size="14.00">q</text>
<text text-anchor="start" x="163.7" y="-35.8" font-family="monospace" font-weight="bold" baseline-shift="sub" font-size="14.00">1</text>
</g>
<!-- q0n&#45;&gt;q1n -->
<g id="edge3" class="edge" data-name="q0n-&gt;q1n">

<path fill="none" stroke="azure" d="M99.47,-37.49C108.8,-37.72 120.04,-37.99 130.42,-38.24"/>
<polygon fill="azure" stroke="azure" points="130.03,-41.73 140.11,-38.47 130.2,-34.73 130.03,-41.73"/>
<text text-anchor="middle" x="120.57" y="-42.2" font-family="Times,serif" font-size="14.00" fill="lightblue">0</text>
</g>
<!-- q2n -->
<g id="node4" class="node" pointer-events="visible" data-name="q2n">

<ellipse fill="linen" stroke="cadetblue" cx="252.78" cy="-41" rx="21.44" ry="21.44"/>
<ellipse fill="none" stroke="cadetblue" cx="252.78" cy="-41" rx="25.47" ry="25.47"/>
<text text-anchor="start" x="245.39" y="-37.8" font-family="monospace" font-weight="bold" font-size="14.00">q</text>
<text text-anchor="start" x="253.17" y="-37.8" font-family="monospace" font-weight="bold" baseline-shift="sub" font-size="14.00">2</text>
</g>
<!-- q1n&#45;&gt;q2n -->
<g id="edge4" class="edge" data-name="q1n-&gt;q2n">

<path fill="none" stroke="azure" d="M185.04,-39.47C194.14,-39.68 205.1,-39.93 215.49,-40.17"/>
<polygon fill="azure" stroke="azure" points="215.25,-43.67 225.32,-40.4 215.41,-36.67 215.25,-43.67"/>
<text text-anchor="middle" x="206.04" y="-44.2" font-family="Times,serif" font-size="14.00" fill="lightblue">0</text>
</g>
<!-- start -->
<g id="node5" class="node" pointer-events="visible" data-name="start">

<ellipse fill="linen" stroke="cadetblue" cx="17.8" cy="-181" rx="1.8" ry="1.8"/>
</g>
<!-- q0 -->
<g id="node6" class="node" pointer-events="visible" data-name="q0">

<ellipse fill="linen" stroke="cadetblue" cx="77.84" cy="-181" rx="21.47" ry="21.47"/>
<text text-anchor="start" x="70.44" y="-177.8" font-family="monospace" font-weight="bold" font-size="14.00">q</text>
<text text-anchor="start" x="78.23" y="-177.8" font-family="monospace" font-weight="bold" baseline-shift="sub" font-size="14.00">0</text>
</g>
<!-- start&#45;&gt;q0 -->
<g id="edge5" class="edge" data-name="start-&gt;q0">

<path fill="none" stroke="azure" d="M19.81,-181C23.06,-181 33.72,-181 44.95,-181"/>
<polygon fill="azure" stroke="azure" points="44.62,-184.5 54.62,-181 44.62,-177.5 44.62,-184.5"/>
</g>
<!-- q0&#45;&gt;q0 -->
<g id="edge6" class="edge" data-name="q0-&gt;q0">

<path fill="none" stroke="azure" d="M70.57,-201.59C69.67,-211.49 72.09,-220.24 77.84,-220.24 81.16,-220.24 83.37,-217.31 84.47,-212.93"/>
<polygon fill="azure" stroke="azure" points="87.95,-213.28 85.02,-203.1 80.96,-212.89 87.95,-213.28"/>
<text text-anchor="middle" x="77.84" y="-224.44" font-family="Times,serif" font-size="14.00" fill="lightblue">1</text>
</g>
<!-- q1 -->
<g id="node7" class="node" pointer-events="visible" data-name="q1">

<ellipse fill="linen" stroke="cadetblue" cx="163.31" cy="-163" rx="21.47" ry="21.47"/>
<text text-anchor="start" x="155.91" y="-159.8" font-family="monospace" font-weight="bold" font-size="14.00">q</text>
<text text-anchor="start" x="163.7" y="-159.8" font-family="monospace" font-weight="bold" baseline-shift="sub" font-size="14.00">1</text>
</g>
<!-- q0&#45;&gt;q1 -->
<g id="edge9" class="edge" data-name="q0-&gt;q1">

<path fill="none" stroke="azure" d="M95.37,-167.9C101.78,-163.62 109.4,-159.39 117.07,-157.2 121.48,-155.94 126.22,-155.55 130.9,-155.69"/>
<polygon fill="azure" stroke="azure" points="130.39,-159.16 140.72,-156.81 131.18,-152.2 130.39,-159.16"/>
<text text-anchor="middle" x="120.57" y="-161.2" font-family="Times,serif" font-size="14.00" fill="lightblue">0</text>
</g>
<!-- q2 -->
<g id="node8" class="node" pointer-events="visible" data-name="q2">

<ellipse fill="linen" stroke="cadetblue" cx="252.78" cy="-172" rx="21.44" ry="21.44"/>
<ellipse fill="none" stroke="cadetblue" cx="252.78" cy="-172" rx="25.47" ry="25.47"/>
<text text-anchor="start" x="245.39" y="-168.8" font-family="monospace" font-weight="bold" font-size="14.00">q</text>
<text text-anchor="start" x="253.17" y="-168.8" font-family="monospace" font-weight="bold" baseline-shift="sub" font-size="14.00">2</text>
</g><g id="edge7" class="edge" data-name="q1-&gt;q0" data-comment="q2">

<path fill="none" stroke="azure" d="M143.22,-171.82C137.21,-174.23 130.47,-176.57 124.07,-178 119.91,-178.93 115.48,-179.6 111.09,-180.08"/>
<polygon fill="azure" stroke="azure" points="110.96,-176.58 101.25,-180.84 111.49,-183.56 110.96,-176.58"/>
<text text-anchor="middle" x="120.57" y="-183.2" font-family="Times,serif" font-size="14.00" fill="lightblue">1</text>
</g>
<!-- q1&#45;&gt;q2 -->
<g id="edge10" class="edge" data-name="q1-&gt;q2">

<path fill="none" stroke="azure" d="M185.04,-165.13C194.21,-166.08 205.28,-167.22 215.74,-168.29"/>
<polygon fill="azure" stroke="azure" points="215.35,-171.77 225.65,-169.31 216.06,-164.81 215.35,-171.77"/>
<text text-anchor="middle" x="206.04" y="-171.2" font-family="Times,serif" font-size="14.00" fill="lightblue">0</text>
</g>
<!-- q2&#45;&gt;q0 -->
<g id="edge8" class="edge" data-name="q2-&gt;q0">

<path fill="none" stroke="azure" d="M229.3,-182.7C202.49,-194.07 156.37,-209.23 117.07,-200 113.65,-199.2 110.18,-198.04 106.8,-196.68"/>
<polygon fill="azure" stroke="azure" points="108.39,-193.56 97.84,-192.52 105.44,-199.91 108.39,-193.56"/>
<text text-anchor="middle" x="163.31" y="-206.2" font-family="Times,serif" font-size="14.00" fill="lightblue">1</text>
</g>
<!-- q2&#45;&gt;q2 -->
<!-- q2&#45;&gt;q2 -->
<g id="edge11" class="edge" data-name="q2-&gt;q2">

<path fill="none" stroke="azure" d="M244.09,-196.45C243.49,-206.62 246.39,-215.24 252.78,-215.24 256.57,-215.24 259.13,-212.2 260.46,-207.6"/>
<polygon fill="azure" stroke="azure" points="263.92,-208.23 261.33,-197.95 256.95,-207.6 263.92,-208.23"/>
<text text-anchor="middle" x="252.78" y="-219.44" font-family="Times,serif" font-size="14.00" fill="lightblue">0</text>
</g>

</g>
</svg>