<?xml version="1.0" standalone="no"?>
<svg xmlns="http://www.w3.org/2000/svg" xmlns:xlink="http://www.w3.org/1999/xlink" width="381pt" height="138pt" viewBox="0.00 0.00 381.49 138">
<g id="graph0" class="graph" transform="translate(3.9999999999999716,134.00000000000006) scale(1.0000000000000002)" data-name="FiniteAutomata">

<g id="clust1" class="cluster" data-name="cluster_dfa">

<polygon fill="none" stroke="white" points="8,-8 8,-122 365.49,-122 365.49,-8 8,-8"/>
</g>
<!-- start -->
<g id="node1" class="node" pointer-events="visible" data-name="start">

<ellipse fill="linen" stroke="cadetblue" cx="17.8" cy="-37" rx="1.8" ry="1.8"/>
</g>
<!-- p0 -->
<g id="node2" class="node" pointer-events="visible" data-name="p0">

<ellipse fill="linen" stroke="cadetblue" cx="77.84" cy="-37" rx="21.47" ry="21.47"/>
<text text-anchor="start" x="70.44" y="-33.8" font-family="monospace" font-weight="bold" font-size="14.00">p</text>
<text text-anchor="start" x="78.23" y="-33.8" font-family="monospace" font-weight="bold" baseline-shift="sub" font-size="14.00">0</text>
</g>
<!-- start&#45;&gt;p0 --><g id="edge1" class="edge" data-name="start-&gt;p0">

<path fill="none" stroke="azure" d="M19.81,-37C23.06,-37 33.72,-37 44.95,-37"/>
<polygon fill="azure" stroke="azure" points="44.62,-40.5 54.62,-37 44.62,-33.5 44.62,-40.5"/>
</g>

<!-- pi -->
<g id="node3" class="node" pointer-events="visible" data-name="pi">

<ellipse fill="linen" stroke="cadetblue" cx="196.89" cy="-35" rx="19.18" ry="19.18"/>
<text text-anchor="start" x="191.05" y="-31.8" font-family="monospace" font-size="14.00" font-weight="bold">p</text>
<text text-anchor="start" x="198.84" y="-31.8" font-family="monospace" font-weight="bold" baseline-shift="sub" font-size="14.00">i</text>
</g><!-- p0&#45;&gt;pi -->
<g id="edge2" class="edge" data-name="p0-&gt;pi">

<path fill="none" stroke="azure" d="M99.76,-36.64C118.23,-36.33 145.37,-35.86 166.1,-35.51"/>
<polygon fill="azure" stroke="azure" points="166,-39.01 175.94,-35.34 165.88,-32.01 166,-39.01"/>
<text text-anchor="start" x="123.03" y="-66.4" font-family="Times,serif" font-size="14.00" fill="lightblue"> </text>
<text text-anchor="start" x="126.53" y="-66.4" font-family="Times,serif" font-weight="bold" font-size="14.00" fill="lightblue">x</text>
<text text-anchor="start" x="133.53" y="-66.4" font-family="Times,serif" font-size="14.00" fill="lightblue">  =</text>
<text text-anchor="start" x="117.07" y="-52.4" font-family="Times,serif" font-size="14.00" fill="lightblue">a</text>
<text text-anchor="start" x="123.29" y="-52.4" font-family="Times,serif" baseline-shift="sub" font-size="14.00" fill="lightblue">1</text>
<text text-anchor="start" x="130.29" y="-52.4" font-family="Times,serif" font-size="14.00" fill="lightblue"> ... a</text>
<text text-anchor="start" x="154" y="-52.4" font-family="Times,serif" baseline-shift="sub" font-size="14.00" fill="lightblue">i</text>
<text text-anchor="start" x="135.73" y="-38.4" font-family="Times,serif" font-size="14.00" fill="lightblue"> </text>
</g>
<!-- pi&#45;&gt;pi -->
<g id="edge3" class="edge" data-name="pi-&gt;pi">

<path fill="none" stroke="azure" d="M186.63,-51.4C183.95,-61.94 187.37,-72.09 196.89,-72.09 202.84,-72.09 206.4,-68.13 207.59,-62.58"/>
<polygon fill="azure" stroke="azure" points="211.1,-62.77 207.21,-52.91 204.1,-63.04 211.1,-62.77"/>
<text text-anchor="start" x="182.44" y="-102.49" font-family="Times,serif" font-size="14.00" fill="lightblue"> </text>
<text text-anchor="start" x="185.94" y="-102.49" font-family="Times,serif" font-weight="bold" font-size="14.00" fill="lightblue">y</text>
<text text-anchor="start" x="192.94" y="-102.49" font-family="Times,serif" font-size="14.00" fill="lightblue">  =</text>
<text text-anchor="start" x="170.59" y="-88.49" font-family="Times,serif" font-size="14.00" fill="lightblue">a</text>
<text text-anchor="start" x="176.8" y="-88.49" font-family="Times,serif" baseline-shift="sub" font-size="14.00" fill="lightblue">i+1</text>
<text text-anchor="start" x="195.59" y="-88.49" font-family="Times,serif" font-size="14.00" fill="lightblue"> ... a</text>
<text text-anchor="start" x="219.3" y="-88.49" font-family="Times,serif" baseline-shift="sub" font-size="14.00" fill="lightblue">j</text>
<text text-anchor="start" x="195.14" y="-74.49" font-family="Times,serif" font-size="14.00" fill="lightblue"> </text>
</g>
<!-- pe -->
<g id="node4" class="node" pointer-events="visible" data-name="pe">

<ellipse fill="linen" stroke="cadetblue" cx="335.49" cy="-38" rx="18" ry="18"/>
<ellipse fill="none" stroke="cadetblue" cx="335.49" cy="-38" rx="22" ry="22"/>
</g>
<!-- pi&#45;&gt;pe -->
<g id="edge4" class="edge" data-name="pi-&gt;pe">

<path fill="none" stroke="azure" d="M216.31,-35.4C238.16,-35.88 274.99,-36.69 301.74,-37.28"/>
<polygon fill="azure" stroke="azure" points="301.64,-40.78 311.71,-37.5 301.79,-33.78 301.64,-40.78"/>
<text text-anchor="start" x="251.64" y="-67.4" font-family="Times,serif" font-size="14.00" fill="lightblue"> </text>
<text text-anchor="start" x="255.14" y="-67.4" font-family="Times,serif" font-weight="bold" font-size="14.00" fill="lightblue">z</text>
<text text-anchor="start" x="261.35" y="-67.4" font-family="Times,serif" font-size="14.00" fill="lightblue">  =</text>
<text text-anchor="start" x="235.89" y="-53.4" font-family="Times,serif" font-size="14.00" fill="lightblue">a</text>
<text text-anchor="start" x="242.1" y="-53.4" font-family="Times,serif" baseline-shift="sub" font-size="14.00" fill="lightblue">j+1</text>
<text text-anchor="start" x="260.89" y="-53.4" font-family="Times,serif" font-size="14.00" fill="lightblue"> ... a</text>
<text text-anchor="start" x="284.6" y="-53.4" font-family="Times,serif" baseline-shift="sub" font-size="14.00" fill="lightblue">m</text>
<text text-anchor="start" x="263.94" y="-39.4" font-family="Times,serif" font-size="14.00" fill="lightblue"> </text>
</g>

</g>
</svg>