<?xml version="1.0" standalone="no"?>
<svg xmlns="http://www.w3.org/2000/svg" xmlns:xlink="http://www.w3.org/1999/xlink" width="302pt" height="150pt" viewBox="0.00 0.00 302.01 150.00">
<g id="graph0" class="graph" transform="translate(4,146) scale(1)" data-name="FiniteAutomata">

<g id="clust1" class="cluster" data-name="cluster_dfa">

<polygon fill="none" stroke="white" points="8,-8 8,-134 286.01,-134 286.01,-8 8,-8" style=""/>
<text text-anchor="start" x="136.9" y="-118.4" font-family="Times,serif" font-weight="bold" font-size="14.00" fill="white" style="">M</text>
<text text-anchor="start" x="150.11" y="-118.4" font-family="Times,serif" font-weight="bold" baseline-shift="sub" font-size="14.00" fill="white" style="">1</text>
</g>
<!-- start -->
<g id="node1" class="node" pointer-events="visible" data-name="start">

<ellipse fill="linen" stroke="cadetblue" cx="17.8" cy="-41" rx="1.8" ry="1.8" style=""/>
</g>
<!-- q1 -->
<g id="node2" class="node" pointer-events="visible" data-name="q1">

<ellipse fill="linen" stroke="cadetblue" cx="77.84" cy="-41" rx="21.47" ry="21.47" style=""/>
<text text-anchor="start" x="70.44" y="-37.8" font-family="monospace" font-weight="bold" font-size="14.00" style="">q</text>
<text text-anchor="start" x="78.23" y="-37.8" font-family="monospace" font-weight="bold" baseline-shift="sub" font-size="14.00" style="">1</text>
</g>
<!-- start&#45;&gt;q1 -->
<g id="edge1" class="edge" data-name="start-&gt;q1">

<path fill="none" stroke="azure" d="M19.81,-41C23.06,-41 33.72,-41 44.95,-41" style=""/>
<polygon fill="azure" stroke="azure" points="44.62,-44.5 54.62,-41 44.62,-37.5 44.62,-44.5" style=""/>
</g>
<!-- q1&#45;&gt;q1 -->
<g id="edge3" class="edge" data-name="q1-&gt;q1">

<path fill="none" stroke="azure" d="M70.57,-61.59C69.67,-71.49 72.09,-80.24 77.84,-80.24 81.16,-80.24 83.37,-77.31 84.47,-72.93" style=""/>
<polygon fill="azure" stroke="azure" points="87.95,-73.28 85.02,-63.1 80.96,-72.89 87.95,-73.28" style=""/>
<text text-anchor="middle" x="77.84" y="-84.44" font-family="Times,serif" font-size="14.00" fill="lightblue" style="">0</text>
</g>
<!-- q2 -->
<g id="node3" class="node" pointer-events="visible" data-name="q2">

<ellipse fill="linen" stroke="cadetblue" cx="163.31" cy="-41" rx="21.47" ry="21.47" style=""/>
<text text-anchor="start" x="155.91" y="-37.8" font-family="monospace" font-weight="bold" font-size="14.00" style="">q</text>
<text text-anchor="start" x="163.7" y="-37.8" font-family="monospace" font-weight="bold" baseline-shift="sub" font-size="14.00" style="">2</text>
</g>
<!-- q1&#45;&gt;q2 -->
<g id="edge2" class="edge" data-name="q1-&gt;q2">

<path fill="none" stroke="azure" d="M99.46,-39.21C105.16,-38.79 111.35,-38.41 117.07,-38.2 121.33,-38.04 125.82,-38.08 130.24,-38.23" style=""/>
<polygon fill="azure" stroke="azure" points="129.91,-41.72 140.09,-38.78 130.3,-34.73 129.91,-41.72" style=""/>
<text text-anchor="middle" x="120.57" y="-42.2" font-family="Times,serif" font-size="14.00" fill="lightblue" style="">1</text>
</g>
<!-- q2&#45;&gt;q1 -->
<g id="edge5" class="edge" data-name="q2-&gt;q1">

<path fill="none" stroke="azure" d="M143.22,-49.48C137.21,-51.74 130.48,-53.86 124.07,-55 118.69,-55.95 113.05,-55.47 107.65,-54.23" style=""/>
<polygon fill="azure" stroke="azure" points="109.1,-51.01 98.51,-51.29 106.96,-57.68 109.1,-51.01" style=""/>
<text text-anchor="middle" x="120.57" y="-59.2" font-family="Times,serif" font-size="14.00" fill="lightblue" style="">0</text>
</g>
<!-- q3 -->
<g id="node4" class="node" pointer-events="visible" data-name="q3">

<ellipse fill="linen" stroke="cadetblue" cx="252.78" cy="-41" rx="21.44" ry="21.44" style=""/>
<ellipse fill="none" stroke="cadetblue" cx="252.78" cy="-41" rx="25.47" ry="25.47" style=""/>
<text text-anchor="start" x="245.39" y="-37.8" font-family="monospace" font-weight="bold" font-size="14.00" style="">q</text>
<text text-anchor="start" x="253.17" y="-37.8" font-family="monospace" font-weight="bold" baseline-shift="sub" font-size="14.00" style="">3</text>
</g>
<!-- q2&#45;&gt;q3 -->
<g id="edge4" class="edge" data-name="q2-&gt;q3">

<path fill="none" stroke="azure" d="M185.04,-41C194.14,-41 205.1,-41 215.49,-41" style=""/>
<polygon fill="azure" stroke="azure" points="215.32,-44.5 225.32,-41 215.32,-37.5 215.32,-44.5" style=""/>
<text text-anchor="middle" x="206.04" y="-45.2" font-family="Times,serif" font-size="14.00" fill="lightblue" style="">1</text>
</g>
<!-- q3&#45;&gt;q3 -->
<g id="edge6" class="edge" data-name="q3-&gt;q3">

<path fill="none" stroke="azure" d="M244.09,-65.45C243.49,-75.62 246.39,-84.24 252.78,-84.24 256.57,-84.24 259.13,-81.2 260.46,-76.6" style=""/>
<polygon fill="azure" stroke="azure" points="263.92,-77.23 261.33,-66.95 256.95,-76.6 263.92,-77.23" style=""/>
<text text-anchor="middle" x="252.78" y="-88.44" font-family="Times,serif" font-size="14.00" fill="lightblue" style="">0,1</text>
</g>
</g>
</svg>