<?xml version="1.0" standalone="no"?>
<svg xmlns="http://www.w3.org/2000/svg" xmlns:xlink="http://www.w3.org/1999/xlink" width="768pt" height="505pt" viewBox="0.00 0.00 767.81 505">
<g id="graph0" class="graph" transform="translate(3.34576416015625,500.34576416015625) scale(1)" data-name="FiniteAutomata">

<g id="clust1" class="cluster" data-name="cluster_dfa">

<polygon fill="none" stroke="white" points="8,-8 8,-363 751.81,-363 751.81,-8 8,-8" style=""/>
<text text-anchor="middle" x="379.91" y="-346.4" font-family="Times,serif" font-size="14.00" fill="white" style="">DFA version of NFA</text>
</g>
<!-- start --><g id="clust2" class="cluster" data-name="cluster_nfa" data-comment="start">

<polygon fill="none" stroke="white" points="8,-371 8,-489 421.46,-489 421.46,-371 8,-371" style=""/>
<text text-anchor="middle" x="214.73" y="-472.4" font-family="Times,serif" font-size="14.00" fill="white" style="">NFA</text>
</g>

<!-- d123&#45;&gt;d1234 -->
<g id="edge11" class="edge" data-name="d123-&gt;d1234">

<path fill="none" stroke="rgb(0, 255, 127)" d="M415.74,-211.32C429.09,-203.93 445.61,-194.78 460.8,-186.38"/>
<polygon fill="springgreen" stroke="springgreen" points="462.15,-189.63 469.21,-181.72 458.76,-183.5 462.15,-189.63"/>
<text text-anchor="middle" x="444.61" y="-199.2" font-family="Times,serif" font-size="14.00" fill="rgb(0, 255, 127)">1</text>
</g>
<!-- d124&#45;&gt;d13 -->
<g id="edge12" class="edge" data-name="d124-&gt;d13">

<path fill="none" stroke="rgb(70, 130, 180)" d="M353.27,-96.28C340.1,-95.23 324.99,-94.02 311.56,-92.94"/>
<polygon fill="steelblue" stroke="steelblue" points="312.04,-89.47 301.79,-92.16 311.48,-96.45 312.04,-89.47"/>
<text text-anchor="middle" x="326.58" y="-98.2" font-family="Times,serif" font-size="14.00" fill="rgb(70, 130, 180)">0</text>
</g>
<!-- d124&#45;&gt;d1234 -->
<g id="edge13" class="edge" data-name="d124-&gt;d1234">

<path fill="none" stroke="rgb(0, 255, 127)" d="M419.3,-115.39C431.89,-122.25 446.79,-130.37 460.6,-137.9"/>
<polygon fill="springgreen" stroke="springgreen" points="458.63,-140.81 469.08,-142.52 461.98,-134.66 458.63,-140.81"/>
<text text-anchor="middle" x="444.61" y="-134.2" font-family="Times,serif" font-size="14.00" fill="rgb(0, 255, 127)">1</text>
</g>
<!-- d14&#45;&gt;d1 -->
<g id="edge8" class="edge" data-name="d14-&gt;d1">

<path fill="none" stroke="rgb(70, 130, 180)" d="M683.84,-282.43C619.82,-291.85 461.2,-313 327.58,-313 167.14,-313 167.14,-313 167.14,-313 143.84,-313 120.48,-300.41 103.64,-288.55"/>
<polygon fill="steelblue" stroke="steelblue" points="105.85,-285.83 95.75,-282.65 101.67,-291.44 105.85,-285.83"/>
<text text-anchor="middle" x="388.22" y="-316.2" font-family="Times,serif" font-size="14.00" fill="rgb(70, 130, 180)">0</text>
</g>
<!-- d14&#45;&gt;d12 -->
<g id="edge9" class="edge" data-name="d14-&gt;d12">

<path fill="none" stroke="rgb(0, 255, 127)" d="M683.23,-278.43C609.49,-279.17 411.33,-278.94 247.7,-259 233.77,-257.3 218.55,-254.76 205.26,-252.3"/>
<polygon fill="springgreen" stroke="springgreen" points="206.12,-248.9 195.64,-250.47 204.81,-255.77 206.12,-248.9"/>
<text text-anchor="middle" x="444.61" y="-278.2" font-family="Times,serif" font-size="14.00" fill="rgb(0, 255, 127)">1</text>
</g>
<!-- d1234&#45;&gt;d134 -->
<g id="edge16" class="edge" data-name="d1234-&gt;d134">

<path fill="none" stroke="rgb(70, 130, 180)" d="M542.39,-178.98C554.69,-184.85 568.41,-191.41 580.5,-197.18"/>
<polygon fill="steelblue" stroke="steelblue" points="578.73,-200.22 589.26,-201.37 581.75,-193.9 578.73,-200.22"/>
<text text-anchor="middle" x="567.06" y="-196.2" font-family="Times,serif" font-size="14.00" fill="rgb(70, 130, 180)">0</text>
</g>
<!-- d1234&#45;&gt;d1234 -->
<g id="edge17" class="edge" data-name="d1234-&gt;d1234">

<path fill="none" stroke="rgb(0, 255, 127)" d="M494.41,-200.57C494.91,-211.41 498.72,-219.72 505.83,-219.72 510.17,-219.72 513.28,-216.63 515.16,-211.77"/>
<polygon fill="springgreen" stroke="springgreen" points="518.57,-212.54 516.98,-202.06 511.69,-211.24 518.57,-212.54"/>
<text text-anchor="middle" x="505.83" y="-223.92" font-family="Times,serif" font-size="14.00" fill="rgb(0, 255, 127)">1</text>
</g>
<!-- start -->
<g id="node10" class="node" pointer-events="visible" data-name="start">

<ellipse fill="linen" stroke="cadetblue" cx="17.8" cy="-400" rx="1.8" ry="1.8"/>
</g>
<!-- q1 -->

<!-- q1 -->
<g id="node11" class="node" pointer-events="visible" data-name="q1">

<ellipse fill="linen" stroke="cadetblue" cx="77.84" cy="-400" rx="21.47" ry="21.47"/>
<text text-anchor="start" x="70.44" y="-396.8" font-family="monospace" font-weight="bold" font-size="14.00">q</text>
<text text-anchor="start" x="78.23" y="-396.8" font-family="monospace" font-weight="bold" baseline-shift="sub" font-size="14.00">1</text>
</g>
<!-- start&#45;&gt;q1 --><g id="edge1" class="edge" data-name="startd-&gt;d1" data-comment="start-&gt;q1">

<path fill="none" stroke="azure" d="M19.81,-268C23.06,-268 33.72,-268 44.95,-268"/>
<polygon fill="azure" stroke="azure" points="44.62,-271.5 54.62,-268 44.62,-264.5 44.62,-271.5"/>
</g>

<!-- q1&#45;&gt;q1 --><g id="edge2" class="edge" data-name="d1-&gt;d1" data-comment="q1-&gt;q1">

<path fill="none" stroke="rgb(70, 130, 180)" d="M70.57,-288.59C69.67,-298.49 72.09,-307.24 77.84,-307.24 81.16,-307.24 83.37,-304.31 84.47,-299.93"/>
<polygon fill="steelblue" stroke="steelblue" points="87.95,-300.28 85.02,-290.1 80.96,-299.89 87.95,-300.28"/>
<text text-anchor="middle" x="77.84" y="-311.44" font-family="Times,serif" font-size="14.00" fill="rgb(70, 130, 180)">0</text>
</g>
<g id="node2" class="node" pointer-events="visible" data-name="d1" data-comment="q1-&gt;q1">

<ellipse fill="linen" stroke="cadetblue" cx="77.84" cy="-268" rx="21.47" ry="21.47"/>
<text text-anchor="start" x="70.44" y="-264.8" font-family="monospace" font-weight="bold" font-size="14.00">q</text>
<text text-anchor="start" x="78.23" y="-264.8" font-family="monospace" font-weight="bold" baseline-shift="sub" font-size="14.00">1</text>
</g>
<!-- q2 -->

<!-- start&#45;&gt;q1 -->
<g id="edge18" class="edge" data-name="start-&gt;q1">

<path fill="none" stroke="azure" d="M19.81,-400C23.06,-400 33.72,-400 44.95,-400"/>
<polygon fill="azure" stroke="azure" points="44.62,-403.5 54.62,-400 44.62,-396.5 44.62,-403.5"/>
</g>
<!-- q1&#45;&gt;q1 -->
<g id="edge19" class="edge" data-name="q1-&gt;q1">

<path fill="none" stroke="azure" d="M70.57,-420.59C69.67,-430.49 72.09,-439.24 77.84,-439.24 81.16,-439.24 83.37,-436.31 84.47,-431.93"/>
<polygon fill="azure" stroke="azure" points="87.95,-432.28 85.02,-422.1 80.96,-431.89 87.95,-432.28"/>
<text text-anchor="middle" x="77.84" y="-443.44" font-family="Times,serif" font-size="14.00" fill="lightblue">0,1</text>
</g>
<!-- q2 -->
<g id="node12" class="node" pointer-events="visible" data-name="q2">

<ellipse fill="linen" stroke="cadetblue" cx="168.14" cy="-402" rx="21.47" ry="21.47"/>
<text text-anchor="start" x="160.74" y="-398.8" font-family="monospace" font-weight="bold" font-size="14.00">q</text>
<text text-anchor="start" x="168.53" y="-398.8" font-family="monospace" font-weight="bold" baseline-shift="sub" font-size="14.00">2</text>
</g>
<!-- q1&#45;&gt;q2 --><g id="edge3" class="edge" data-name="d1-&gt;d12" data-comment="q1-&gt;q2">

<path fill="none" stroke="rgb(0, 255, 127)" d="M98.87,-262.78C108.57,-260.26 120.5,-257.15 131.66,-254.24"/>
<polygon fill="springgreen" stroke="springgreen" points="132.19,-257.72 140.98,-251.81 130.43,-250.95 132.19,-257.72"/>
<text text-anchor="middle" x="120.57" y="-261.2" font-family="Times,serif" font-size="14.00" fill="rgb(0, 255, 127)">1</text>
</g>

<!-- q2&#45;&gt;q1 -->

<!-- q3 --><g id="edge4" class="edge" data-name="d12-&gt;d13" data-comment="q3">

<path fill="none" stroke="rgb(70, 130, 180)" d="M183.54,-223.45C201.41,-196.73 231.98,-151 252.28,-120.64"/>
<polygon fill="steelblue" stroke="steelblue" points="254.99,-122.89 257.64,-112.63 249.17,-119 254.99,-122.89"/>
<text text-anchor="middle" x="220.95" y="-180.2" font-family="Times,serif" font-size="14.00" fill="rgb(70, 130, 180)">0</text>
</g>

<!-- q1&#45;&gt;q2 -->
<g id="edge20" class="edge" data-name="q1-&gt;q2">

<path fill="none" stroke="azure" d="M99.76,-400.47C110.32,-400.71 123.35,-401.01 135.13,-401.28"/>
<polygon fill="azure" stroke="azure" points="134.77,-404.77 144.85,-401.5 134.93,-397.77 134.77,-404.77"/>
<text text-anchor="middle" x="120.57" y="-405.2" font-family="Times,serif" font-size="14.00" fill="lightblue">1</text>
</g>
<!-- q3 -->
<g id="node13" class="node" pointer-events="visible" data-name="q3">

<ellipse fill="linen" stroke="cadetblue" cx="273.76" cy="-403" rx="21.47" ry="21.47"/>

<text text-anchor="start" x="266.37" y="-399.8" font-family="monospace" font-weight="bold" font-size="14.00">q</text>
<text text-anchor="start" x="274.16" y="-399.8" font-family="monospace" font-weight="bold" baseline-shift="sub" font-size="14.00">3</text></g>
<!-- q2&#45;&gt;q3 -->
<!-- q2&#45;&gt;q3 -->

<!-- q3&#45;&gt;q3 --><g id="edge5" class="edge" data-name="d12-&gt;d123" data-comment="q3-&gt;q3">

<path fill="none" stroke="rgb(0, 255, 127)" d="M194.58,-242.78C231.71,-239.55 301.16,-233.5 345.75,-229.61"/>
<polygon fill="springgreen" stroke="springgreen" points="345.9,-233.11 355.55,-228.76 345.29,-226.14 345.9,-233.11"/>
<text text-anchor="middle" x="273.76" y="-242.2" font-family="Times,serif" font-size="14.00" fill="rgb(0, 255, 127)">1</text>
</g>

<g id="node1" class="node" pointer-events="visible" data-name="startd" data-comment="q3-&gt;q3">

<ellipse fill="linen" stroke="cadetblue" cx="17.8" cy="-268" rx="1.8" ry="1.8"/>
</g>
<!-- q2&#45;&gt;q3 --><g id="edge7" class="edge" data-name="d13-&gt;d124" data-comment="q2-&gt;q3">

<path fill="none" stroke="rgb(0, 255, 127)" d="M296.75,-77.12C308.17,-71.98 322.41,-67.96 335.33,-71.2 339.61,-72.27 343.93,-73.78 348.14,-75.54"/>
<polygon fill="springgreen" stroke="springgreen" points="346.43,-78.6 356.96,-79.68 349.4,-72.26 346.43,-78.6"/>
<text text-anchor="middle" x="326.58" y="-75.2" font-family="Times,serif" font-size="14.00" fill="rgb(0, 255, 127)">1</text>
</g>


<!-- q2&#45;&gt;q3 -->
<g id="edge21" class="edge" data-name="q2-&gt;q3">

<path fill="none" stroke="azure" d="M190.11,-402.2C204.57,-402.34 224.09,-402.53 240.52,-402.69"/>
<polygon fill="azure" stroke="azure" points="240.28,-406.19 250.31,-402.78 240.35,-399.19 240.28,-406.19"/>
<text text-anchor="middle" x="220.95" y="-406.2" font-family="Times,serif" font-size="14.00" fill="lightblue">0,1</text>
</g>
<!-- q4 -->
<g id="node14" class="node" pointer-events="visible" data-name="q4">

<ellipse fill="linen" stroke="cadetblue" cx="388.22" cy="-404" rx="21.44" ry="21.44"/>
<ellipse fill="none" stroke="cadetblue" cx="388.22" cy="-404" rx="25.47" ry="25.47"/>
<text text-anchor="start" x="380.83" y="-400.8" font-family="monospace" font-weight="bold" font-size="14.00">q</text>
<text text-anchor="start" x="388.61" y="-400.8" font-family="monospace" font-weight="bold" baseline-shift="sub" font-size="14.00">4</text>
</g><!-- d1&#45;&gt;d1 -->

<!-- d2 --><g id="edge6" class="edge" data-name="d13-&gt;d14" data-comment="d2">

<path fill="none" stroke="rgb(70, 130, 180)" d="M294.04,-73.5C315.36,-56.98 351.45,-34 387.22,-34 387.22,-34 387.22,-34 615.62,-34 658.81,-34 691.27,-167.63 705.23,-237.11"/>
<polygon fill="steelblue" stroke="steelblue" points="701.73,-237.46 707.09,-246.6 708.6,-236.11 701.73,-237.46"/>
<text text-anchor="middle" x="505.83" y="-38.2" font-family="Times,serif" font-size="14.00" fill="rgb(70, 130, 180)">0</text>
</g>
<!-- d134 -->

<g id="node3" class="node" pointer-events="visible" data-name="d12" data-comment="d134">

<ellipse fill="linen" stroke="cadetblue" cx="168.14" cy="-245" rx="26.13" ry="26.13"/>
<text text-anchor="start" x="157.24" y="-241.8" font-family="monospace" font-weight="bold" font-size="14.00">q</text>
<text text-anchor="start" x="165.03" y="-241.8" font-family="monospace" font-weight="bold" baseline-shift="sub" font-size="14.00">12</text>
</g><g id="node6" class="node" pointer-events="visible" data-name="d123" data-comment="d134">

<ellipse fill="linen" stroke="cadetblue" cx="388.22" cy="-226" rx="30.79" ry="30.79"/>
<text text-anchor="start" x="373.83" y="-222.8" font-family="monospace" font-weight="bold" font-size="14.00">q</text>
<text text-anchor="start" x="381.61" y="-222.8" font-family="monospace" font-weight="bold" baseline-shift="sub" font-size="14.00">123</text>
</g><g id="node8" class="node" pointer-events="visible" data-name="d14" data-comment="d134">

<ellipse fill="linen" stroke="cadetblue" cx="713.75" cy="-278" rx="26.12" ry="26.12"/>
<ellipse fill="none" stroke="cadetblue" cx="713.75" cy="-278" rx="30.13" ry="30.13"/>
<text text-anchor="start" x="702.86" y="-274.8" font-family="monospace" font-weight="bold" font-size="14.00">q</text>
<text text-anchor="start" x="710.64" y="-274.8" font-family="monospace" font-weight="bold" baseline-shift="sub" font-size="14.00">14</text>
</g><g id="node4" class="node" pointer-events="visible" data-name="d13" data-comment="d134">

<ellipse fill="linen" stroke="cadetblue" cx="273.76" cy="-90" rx="26.13" ry="26.13"/>
<text text-anchor="start" x="262.87" y="-86.8" font-family="monospace" font-weight="bold" font-size="14.00">q</text>
<text text-anchor="start" x="270.66" y="-86.8" font-family="monospace" font-weight="bold" baseline-shift="sub" font-size="14.00">13</text>
</g><g id="node5" class="node" pointer-events="visible" data-name="d134">

<ellipse fill="linen" stroke="cadetblue" cx="614.62" cy="-213" rx="26.13" ry="26.13"/>
<text text-anchor="start" x="603.73" y="-209.8" font-family="monospace" font-weight="bold" font-size="14.00">q</text>
<text text-anchor="start" x="611.51" y="-209.8" font-family="monospace" font-weight="bold" baseline-shift="sub" font-size="14.00">13</text>
</g><!-- d134&#45;&gt;d124 -->
<g id="edge15" class="edge" data-name="d134-&gt;d124">

<path fill="none" stroke="rgb(0, 255, 127)" d="M606.98,-187.55C598.15,-159.48 579.54,-115.73 545.56,-96.2 511.55,-76.66 466.14,-80.07 433.03,-86.74"/>
<polygon fill="springgreen" stroke="springgreen" points="432.35,-83.31 423.34,-88.88 433.86,-90.14 432.35,-83.31"/>
<text text-anchor="middle" x="505.83" y="-100.2" font-family="Times,serif" font-size="14.00" fill="rgb(0, 255, 127)">1</text>
</g>
<!-- d134&#45;&gt;d14 -->
<g id="edge14" class="edge" data-name="d134-&gt;d14">

<path fill="none" stroke="rgb(70, 130, 180)" d="M636.7,-227.1C649.03,-235.36 664.88,-245.97 678.92,-255.36"/>
<polygon fill="steelblue" stroke="steelblue" points="676.77,-258.13 687.03,-260.79 680.66,-252.32 676.77,-258.13"/>
<text text-anchor="middle" x="662.18" y="-249.2" font-family="Times,serif" font-size="14.00" fill="rgb(70, 130, 180)">0</text>
</g>
<!-- d123&#45;&gt;d134 -->
<g id="edge10" class="edge" data-name="d123-&gt;d134">

<path fill="none" stroke="rgb(70, 130, 180)" d="M417.76,-235.62C449.33,-244.88 501.55,-256.1 545.56,-246 557.97,-243.15 570.75,-237.72 581.83,-232.08"/>
<polygon fill="steelblue" stroke="steelblue" points="583.39,-235.21 590.54,-227.4 580.08,-229.05 583.39,-235.21"/>
<text text-anchor="middle" x="505.83" y="-253.2" font-family="Times,serif" font-size="14.00" fill="rgb(70, 130, 180)">0</text>
</g>
<!-- d1234 -->
<g id="node9" class="node" pointer-events="visible" data-name="d1234">

<ellipse fill="linen" stroke="cadetblue" cx="505.83" cy="-162" rx="35.92" ry="35.92"/>
<text text-anchor="start" x="487.94" y="-158.8" font-family="monospace" font-size="14.00" font-weight="bold">q</text><ellipse fill="none" stroke="cadetblue" cx="505.83" cy="-162" rx="39.94" ry="39.94"/>

<text text-anchor="start" x="495.73" y="-158.8" font-family="monospace" font-weight="bold" baseline-shift="sub" font-size="14.00">1234</text>
</g><g id="node7" class="node" pointer-events="visible" data-name="d124" data-comment="d1234">

<ellipse fill="linen" stroke="cadetblue" cx="388.22" cy="-99" rx="30.8" ry="30.8"/>
<text text-anchor="start" x="373.83" y="-95.8" font-family="monospace" font-weight="bold" font-size="14.00">q</text><ellipse fill="none" stroke="cadetblue" cx="388.22" cy="-99" rx="34.79" ry="34.79"/>
<text text-anchor="start" x="381.61" y="-95.8" font-family="monospace" font-weight="bold" baseline-shift="sub" font-size="14.00">124</text>

</g>
<!-- q3&#45;&gt;q4 -->

<g id="edge22" class="edge" data-name="q3-&gt;q4">

<path fill="none" stroke="azure" d="M295.65,-403.19C311.18,-403.32 332.75,-403.52 351.06,-403.68"/>
<polygon fill="azure" stroke="azure" points="350.98,-407.18 361.01,-403.77 351.04,-400.18 350.98,-407.18"/>
<text text-anchor="middle" x="326.58" y="-407.2" font-family="Times,serif" font-size="14.00" fill="lightblue">0,1</text>
</g>

</g>
</svg>